<svg version="1.1" id="Layer_1" xmlns="http://www.w3.org/2000/svg" xmlns:xlink="http://www.w3.org/1999/xlink" x="0px" y="0px"
	 width="100%" viewBox="0 0 1301 437" enable-background="new 0 0 1301 437" xml:space="preserve">
<path fill="#4C7EAA" opacity="1.000000" stroke="none" 
	d="
M1302.000000,300.000000 
	C1302.000000,345.950409 1302.000000,391.900787 1302.000000,438.000000 
	C1212.979126,438.000000 1123.958252,438.000000 1034.361938,437.671082 
	C1031.456421,435.637146 1029.247314,433.720581 1026.757446,432.294098 
	C1024.771973,431.156525 1022.347717,430.809570 1020.283447,429.780304 
	C1006.028870,422.672424 991.707458,415.686249 977.626953,408.245514 
	C966.044800,402.125000 954.577515,395.738556 943.405640,388.903900 
	C932.819275,382.427429 922.609070,375.323059 912.367859,368.298706 
	C899.680969,359.596985 886.564941,351.391754 874.657532,341.713196 
	C856.809692,327.206238 839.383484,312.100769 822.654907,296.320251 
	C807.441528,281.969177 793.411987,266.364441 778.807373,251.364151 
	C777.824341,250.354507 776.392395,249.781998 775.099731,248.541687 
	C775.020874,242.087021 774.897400,236.094238 775.033875,230.107376 
	C775.175598,223.889145 777.425232,218.545029 781.781738,213.949326 
	C787.860840,207.536575 795.641724,206.144241 803.804565,206.125519 
	C803.804565,200.011978 803.804565,194.273453 803.804565,188.313171 
	C790.477600,186.615402 781.395264,192.174835 774.777527,203.216019 
	C774.777527,198.615616 774.777527,194.015228 774.777527,189.334061 
	C768.342651,189.334061 762.288940,189.334061 755.607788,189.334061 
	C755.607788,200.444214 755.607788,211.225937 755.310669,221.889664 
	C753.596436,220.403030 752.165710,219.048279 750.765320,217.662827 
	C747.856140,214.784729 744.962952,211.890350 741.976196,208.541077 
	C741.889221,201.874786 741.889221,195.670090 741.889221,188.827209 
	C736.808289,188.827209 732.401062,188.827209 727.949829,188.472519 
	C727.052124,186.345474 726.379272,184.455353 725.314453,182.820511 
	C719.698914,174.198486 713.633362,165.849487 708.383850,157.013718 
	C699.744202,142.471771 691.166260,127.859711 683.380981,112.852478 
	C674.442749,95.622856 666.084473,78.071869 658.073181,60.389187 
	C652.876343,48.918728 648.500427,37.052979 644.233276,25.192890 
	C641.388000,17.284800 639.381775,9.074850 637.000000,0.999995 
	C705.687561,1.000000 774.375122,1.000000 843.489014,1.380056 
	C844.068298,3.987429 843.596863,6.510682 844.486938,8.388669 
	C847.634155,15.028750 851.105103,21.528221 854.717773,27.931789 
	C859.814026,36.965126 864.938965,45.994671 870.429260,54.790115 
	C877.321411,65.831436 884.362244,76.796471 891.789490,87.481270 
	C896.485535,94.237076 901.966492,100.451706 907.163086,106.854134 
	C914.106445,115.408630 921.040527,123.973114 928.146973,132.391190 
	C930.009644,134.597610 932.662537,136.120239 934.657654,138.235138 
	C938.389893,142.191483 941.687256,146.576050 945.572510,150.365234 
	C949.705933,154.396484 954.428833,157.816528 958.676697,161.739212 
	C962.804565,165.551071 966.560486,169.764130 970.659546,173.609344 
	C974.029602,176.770691 977.259644,180.461990 981.276978,182.460815 
	C986.904358,185.260681 989.672729,188.662766 987.811340,195.237579 
	C973.036804,207.556458 970.227600,231.404953 981.641846,246.422516 
	C993.304810,261.767273 1011.962158,264.192841 1028.619263,252.408264 
	C1028.779541,254.427460 1028.932861,256.358704 1029.107666,258.561218 
	C1035.335449,258.561218 1041.392822,258.561218 1048.170410,258.561218 
	C1048.170410,249.192612 1048.170410,240.100204 1048.554565,231.013428 
	C1053.281372,232.922409 1057.705200,234.661789 1061.950317,236.762222 
	C1071.721802,241.597031 1081.344849,246.734283 1091.149658,251.498535 
	C1096.957520,254.320679 1103.021851,256.611267 1108.920288,259.253418 
	C1111.304688,260.321472 1113.457642,261.947357 1115.888062,262.862061 
	C1119.732910,264.309082 1123.756714,265.272247 1127.643677,266.616608 
	C1135.622803,269.376221 1143.558105,272.262115 1151.518188,275.076996 
	C1155.253052,276.397736 1158.969116,277.787323 1162.755981,278.941223 
	C1167.155151,280.281677 1171.663574,281.268585 1176.048584,282.649872 
	C1179.994263,283.892731 1183.783569,286.461639 1187.736816,286.673615 
	C1195.442871,287.086853 1202.699341,288.693665 1210.169189,290.552887 
	C1222.315430,293.576019 1234.833008,295.539825 1247.310181,296.696381 
	C1265.486084,298.381195 1283.765015,298.953430 1302.000000,300.000000 
M897.050171,238.362717 
	C908.363037,262.115753 942.037964,268.069702 960.547241,249.350830 
	C958.029419,246.959198 955.351746,244.714645 953.045349,242.137741 
	C950.902466,239.743469 949.042358,239.941620 946.113342,240.927399 
	C941.468018,242.490738 936.469360,243.723434 931.607910,243.768234 
	C922.748901,243.849945 916.615479,238.929474 914.416809,230.733566 
	C931.261475,230.733566 947.940002,230.733566 964.983765,230.733566 
	C964.983765,226.100555 965.384583,222.081451 964.914795,218.166855 
	C962.812195,200.647263 951.529358,189.595016 934.107971,188.168488 
	C906.178894,185.881531 887.827576,210.729599 897.050171,238.362717 
M864.154114,254.250107 
	C864.266724,255.681702 864.379333,257.113281 864.485352,258.460785 
	C870.976685,258.460785 877.026001,258.460785 882.930725,258.460785 
	C882.930725,242.286987 883.780945,226.442490 882.674255,210.735870 
	C881.707214,197.012115 870.930359,188.331436 857.858521,187.963943 
	C848.183777,187.691971 841.208008,192.365036 834.803650,200.500671 
	C834.604370,196.053864 834.453613,192.690933 834.302429,189.318054 
	C827.780884,189.318054 821.707581,189.318054 815.439514,189.318054 
	C815.439514,212.537460 815.439514,235.425232 815.439514,258.568176 
	C821.789124,258.568176 827.851562,258.568176 834.529541,258.568176 
	C834.529541,247.017227 834.781616,235.726074 834.430542,224.453690 
	C834.234924,218.173065 836.823181,213.569824 841.093445,209.532440 
	C845.872314,205.014252 851.568481,203.524628 857.672180,205.872543 
	C863.447266,208.094086 864.018555,213.535599 864.067078,218.828262 
	C864.172546,230.317078 864.133240,241.807251 864.154114,254.250107 
z"/>
<path fill="#5383AD" opacity="1.000000" stroke="none" 
	d="
M987.985352,194.950714 
	C989.672729,188.662766 986.904358,185.260681 981.276978,182.460815 
	C977.259644,180.461990 974.029602,176.770691 970.659546,173.609344 
	C966.560486,169.764130 962.804565,165.551071 958.676697,161.739212 
	C954.428833,157.816528 949.705933,154.396484 945.572510,150.365234 
	C941.687256,146.576050 938.389893,142.191483 934.657654,138.235138 
	C932.662537,136.120239 930.009644,134.597610 928.146973,132.391190 
	C921.040527,123.973114 914.106445,115.408630 907.163086,106.854134 
	C901.966492,100.451706 896.485535,94.237076 891.789490,87.481270 
	C884.362244,76.796471 877.321411,65.831436 870.429260,54.790115 
	C864.938965,45.994671 859.814026,36.965126 854.717773,27.931789 
	C851.105103,21.528221 847.634155,15.028750 844.486938,8.388669 
	C843.596863,6.510682 844.068298,3.987429 843.957642,1.380056 
	C996.578430,1.000000 1149.156860,1.000000 1302.000000,1.000000 
	C1302.000000,100.354073 1302.000000,199.708374 1302.000000,299.531342 
	C1283.765015,298.953430 1265.486084,298.381195 1247.310181,296.696381 
	C1234.833008,295.539825 1222.315430,293.576019 1210.169189,290.552887 
	C1202.699341,288.693665 1195.442871,287.086853 1187.736816,286.673615 
	C1183.783569,286.461639 1179.994263,283.892731 1176.048584,282.649872 
	C1171.663574,281.268585 1167.155151,280.281677 1162.755981,278.941223 
	C1158.969116,277.787323 1155.253052,276.397736 1151.518188,275.076996 
	C1143.558105,272.262115 1135.622803,269.376221 1127.643677,266.616608 
	C1123.756714,265.272247 1119.732910,264.309082 1115.888062,262.862061 
	C1113.457642,261.947357 1111.304688,260.321472 1108.920288,259.253418 
	C1103.021851,256.611267 1096.957520,254.320679 1091.149658,251.498535 
	C1081.344849,246.734283 1071.721802,241.597031 1061.950317,236.762222 
	C1057.705200,234.661789 1053.281372,232.922409 1048.485474,230.548721 
	C1048.032227,208.158356 1048.032227,186.238312 1048.032227,164.217545 
	C1041.333252,164.217545 1035.289185,164.217545 1028.632324,164.217545 
	C1028.632324,174.756546 1028.632324,184.928055 1028.632324,196.037476 
	C1022.974976,190.635193 1017.189880,188.128525 1010.404053,187.871231 
	C1002.053955,187.554642 994.789368,190.474655 987.985352,194.950714 
z"/>
<path fill="#3A70A1" opacity="1.000000" stroke="none" 
	d="
M63.000000,1.000000 
	C127.020897,1.000000 191.041794,1.000000 255.532028,1.435476 
	C257.961945,11.622609 259.631134,21.444069 261.946960,31.110622 
	C266.089020,48.400139 270.620758,65.596291 274.557434,82.885529 
	C262.472595,83.196022 256.040283,88.685623 256.031342,98.990501 
	C255.966003,174.293823 255.975143,249.597244 256.035889,324.900574 
	C256.043671,334.562225 262.422882,340.769623 272.045227,340.992737 
	C273.876892,341.035217 275.710297,341.001221 277.542908,341.003754 
	C317.358154,341.058594 357.173401,341.113617 397.036591,341.541138 
	C397.704376,343.972534 397.918579,346.282745 399.012299,348.048004 
	C404.577148,357.029877 410.322906,365.901215 416.095612,374.752350 
	C421.970703,383.760498 427.836334,392.779388 433.954620,401.621643 
	C435.795349,404.281891 438.780701,406.138977 440.690796,408.764740 
	C444.359436,413.807892 447.641449,419.132782 451.070251,424.349731 
	C454.056519,428.893433 457.024139,433.449432 460.000000,438.000000 
	C381.979095,438.000000 303.958221,438.000000 225.426422,437.632874 
	C222.892868,433.283844 220.968445,429.248352 218.831589,425.328705 
	C204.901276,399.776001 190.613235,374.412109 177.083496,348.649658 
	C169.283905,333.798279 162.292435,318.485840 155.635635,303.079193 
	C144.755890,277.898773 133.657684,252.765030 124.109840,227.069763 
	C113.799957,199.323761 104.556732,171.139496 95.980858,142.803635 
	C88.416100,117.808563 82.195145,92.395897 75.802185,67.061310 
	C72.184448,52.724632 69.240410,38.208820 66.336708,23.704874 
	C64.837067,16.214142 64.088127,8.573118 63.000000,1.000000 
z"/>
<path fill="#477AA7" opacity="1.000000" stroke="none" 
	d="
M636.531372,0.999995 
	C639.381775,9.074850 641.388000,17.284800 644.233276,25.192890 
	C648.500427,37.052979 652.876343,48.918728 658.073181,60.389187 
	C666.084473,78.071869 674.442749,95.622856 683.380981,112.852478 
	C691.166260,127.859711 699.744202,142.471771 708.383850,157.013718 
	C713.633362,165.849487 719.698914,174.198486 725.314453,182.820511 
	C726.379272,184.455353 727.052124,186.345474 727.528625,188.535065 
	C725.558350,189.034378 723.965332,189.116455 722.522156,189.190826 
	C722.182251,191.466171 721.929749,193.156631 721.563843,195.606522 
	C719.544678,193.811920 718.330933,192.144119 716.694458,191.369812 
	C700.294495,183.610199 683.037048,189.137314 673.170715,204.445435 
	C664.930420,217.230637 666.543579,240.529419 679.633423,251.253998 
	C689.271301,259.150360 699.458740,263.177521 711.653870,258.754730 
	C715.106750,257.502441 718.156433,255.138351 721.725952,253.092209 
	C721.958435,254.952042 722.173279,256.671204 722.411621,258.578064 
	C728.826416,258.578064 735.070984,258.578064 742.063232,258.578064 
	C742.063232,241.875427 742.063232,225.439041 742.063232,209.002655 
	C744.962952,211.890350 747.856140,214.784729 750.765320,217.662827 
	C752.165710,219.048279 753.596436,220.403030 755.391235,222.351715 
	C755.768921,234.794693 755.768921,246.657639 755.768921,258.836670 
	C761.840027,258.836670 766.968628,258.848083 772.097107,258.824646 
	C772.893066,258.821014 773.688293,258.657867 775.169189,258.491425 
	C775.169189,255.220230 775.169189,252.113205 775.169189,249.006180 
	C776.392395,249.781998 777.824341,250.354507 778.807373,251.364151 
	C793.411987,266.364441 807.441528,281.969177 822.654907,296.320251 
	C839.383484,312.100769 856.809692,327.206238 874.657532,341.713196 
	C886.564941,351.391754 899.680969,359.596985 912.367859,368.298706 
	C922.609070,375.323059 932.819275,382.427429 943.405640,388.903900 
	C954.577515,395.738556 966.044800,402.125000 977.626953,408.245514 
	C991.707458,415.686249 1006.028870,422.672424 1020.283447,429.780304 
	C1022.347717,430.809570 1024.771973,431.156525 1026.757446,432.294098 
	C1029.247314,433.720581 1031.456421,435.637146 1033.893311,437.671082 
	C946.979126,438.000000 859.958191,438.000000 772.421570,437.644348 
	C769.031433,434.446075 766.210144,431.547363 763.273926,428.770111 
	C745.283142,411.753235 726.919617,395.112610 709.365662,377.657379 
	C694.766418,363.140137 680.455261,348.226471 667.199219,332.492004 
	C650.709351,312.919098 635.333862,292.399872 619.715881,272.105560 
	C616.326477,267.701324 613.950684,262.516998 611.502258,257.756531 
	C627.312805,262.105835 641.700684,261.290100 654.091553,249.757339 
	C651.470581,247.041534 649.056458,244.742462 646.886292,242.232437 
	C644.859924,239.888733 643.037842,239.770065 640.015869,240.838547 
	C635.396484,242.471848 630.386902,243.713593 625.522461,243.788422 
	C616.351318,243.929474 609.327087,238.297791 608.353149,230.710114 
	C624.829529,230.710114 641.251770,230.710114 658.711060,230.710114 
	C658.454163,225.134583 658.796814,219.974396 657.888794,215.044556 
	C653.950012,193.660156 632.761780,184.567139 615.878723,189.040161 
	C599.475281,193.386124 590.213257,204.207932 587.589172,220.883789 
	C581.645569,212.012436 575.360107,203.605072 570.520996,194.434509 
	C560.356140,175.171295 550.575989,155.682510 541.352112,135.952438 
	C533.898376,120.008682 527.152710,103.708633 520.716614,87.321686 
	C514.580322,71.698044 508.857819,55.884686 503.690918,39.916111 
	C499.553650,27.129683 496.522217,13.985441 493.000000,0.999999 
	C540.687561,1.000000 588.375122,1.000000 636.531372,0.999995 
z"/>
<path fill="#356C9E" opacity="1.000000" stroke="none" 
	d="
M62.531342,1.000000 
	C64.088127,8.573118 64.837067,16.214142 66.336708,23.704874 
	C69.240410,38.208820 72.184448,52.724632 75.802185,67.061310 
	C82.195145,92.395897 88.416100,117.808563 95.980858,142.803635 
	C104.556732,171.139496 113.799957,199.323761 124.109840,227.069763 
	C133.657684,252.765030 144.755890,277.898773 155.635635,303.079193 
	C162.292435,318.485840 169.283905,333.798279 177.083496,348.649658 
	C190.613235,374.412109 204.901276,399.776001 218.831589,425.328705 
	C220.968445,429.248352 222.892868,433.283844 224.957764,437.632874 
	C150.378540,438.000000 75.757065,438.000000 1.067799,438.000000 
	C1.067799,292.333344 1.067799,146.666672 1.067799,1.000000 
	C21.420605,1.000000 41.741642,1.000000 62.531342,1.000000 
z"/>
<path fill="#4477A6" opacity="1.000000" stroke="none" 
	d="
M492.531342,0.999999 
	C496.522217,13.985441 499.553650,27.129683 503.690918,39.916111 
	C508.857819,55.884686 514.580322,71.698044 520.716614,87.321686 
	C527.152710,103.708633 533.898376,120.008682 541.352112,135.952438 
	C550.575989,155.682510 560.356140,175.171295 570.520996,194.434509 
	C575.360107,203.605072 581.645569,212.012436 587.649292,221.338837 
	C588.130981,224.554535 588.007019,227.230804 588.386597,229.833679 
	C590.396606,243.619461 598.941528,252.150192 611.108032,257.691986 
	C613.950684,262.516998 616.326477,267.701324 619.715881,272.105560 
	C635.333862,292.399872 650.709351,312.919098 667.199219,332.492004 
	C680.455261,348.226471 694.766418,363.140137 709.365662,377.657379 
	C726.919617,395.112610 745.283142,411.753235 763.273926,428.770111 
	C766.210144,431.547363 769.031433,434.446075 771.952881,437.644348 
	C734.979126,438.000000 697.958191,438.000000 660.450317,437.625549 
	C659.347900,435.750824 659.084412,433.925293 658.053101,432.809204 
	C654.458618,428.919037 650.554932,425.316956 646.848877,421.527008 
	C640.584290,415.120544 634.248535,408.775879 628.189575,402.178467 
	C622.346924,395.816620 616.748169,389.225922 611.166199,382.630859 
	C603.873596,374.014648 596.585693,365.389343 589.516052,356.591003 
	C583.702698,349.356232 578.148315,341.909821 572.592224,334.472778 
	C566.043640,325.707275 559.402283,316.998749 553.194397,307.994385 
	C546.328613,298.035675 539.753052,287.866669 533.352539,277.601318 
	C529.598511,271.580505 526.431946,265.193512 523.467041,258.917725 
	C542.184082,258.864197 560.435120,258.864197 578.754395,258.864197 
	C578.754395,252.489853 578.754395,246.792343 578.754395,240.698517 
	C566.411926,240.698517 554.484802,240.698517 541.975220,240.698517 
	C541.975220,215.278763 541.975220,190.259003 541.975220,165.054535 
	C535.284363,165.054535 529.187561,165.054535 522.488403,165.054535 
	C522.488403,167.234863 522.488342,169.196609 522.488464,171.158356 
	C522.489441,192.126953 522.519348,213.095627 522.476013,234.064133 
	C522.460205,241.708374 522.269836,249.352264 521.842712,256.864471 
	C519.916199,254.886002 518.007324,253.219589 516.760742,251.153595 
	C514.470337,247.357620 512.625671,243.295853 510.496674,239.398727 
	C503.205750,226.052658 495.934814,212.694565 488.467590,199.447418 
	C487.625000,197.952591 485.582428,197.134140 484.028076,195.537476 
	C483.938507,168.612564 483.519806,142.145020 483.999756,115.693779 
	C484.556244,85.027397 482.222626,81.948593 451.460480,82.964912 
	C445.646759,83.156982 439.817841,82.887810 433.975830,82.439102 
	C429.028503,65.512199 423.861694,49.043938 419.261719,32.418854 
	C416.397888,22.068546 414.391327,11.481046 412.000000,1.000000 
	C438.687561,1.000000 465.375122,1.000000 492.531342,0.999999 
z"/>
<path fill="#4176A5" opacity="1.000000" stroke="none" 
	d="
M523.001099,258.971222 
	C526.431946,265.193512 529.598511,271.580505 533.352539,277.601318 
	C539.753052,287.866669 546.328613,298.035675 553.194397,307.994385 
	C559.402283,316.998749 566.043640,325.707275 572.592224,334.472778 
	C578.148315,341.909821 583.702698,349.356232 589.516052,356.591003 
	C596.585693,365.389343 603.873596,374.014648 611.166199,382.630859 
	C616.748169,389.225922 622.346924,395.816620 628.189575,402.178467 
	C634.248535,408.775879 640.584290,415.120544 646.848877,421.527008 
	C650.554932,425.316956 654.458618,428.919037 658.053101,432.809204 
	C659.084412,433.925293 659.347900,435.750824 659.981689,437.625549 
	C593.645752,438.000000 527.291565,438.000000 460.468658,438.000000 
	C457.024139,433.449432 454.056519,428.893433 451.070251,424.349731 
	C447.641449,419.132782 444.359436,413.807892 440.690796,408.764740 
	C438.780701,406.138977 435.795349,404.281891 433.954620,401.621643 
	C427.836334,392.779388 421.970703,383.760498 416.095612,374.752350 
	C410.322906,365.901215 404.577148,357.029877 399.012299,348.048004 
	C397.918579,346.282745 397.704376,343.972534 397.502228,341.477448 
	C420.727814,341.025513 443.535767,341.029266 466.343597,340.985840 
	C477.794891,340.964050 483.851440,334.898102 483.874237,323.351257 
	C483.921631,299.377808 483.871124,275.404144 483.906464,251.430649 
	C483.933685,232.954391 484.030457,214.478241 484.096313,196.002045 
	C485.582428,197.134140 487.625000,197.952591 488.467590,199.447418 
	C495.934814,212.694565 503.205750,226.052658 510.496674,239.398727 
	C512.625671,243.295853 514.470337,247.357620 516.760742,251.153595 
	C518.007324,253.219589 519.916199,254.886002 521.965576,257.106445 
	C522.603638,257.977234 522.802368,258.474213 523.001099,258.971222 
z"/>
<path fill="#4175A4" opacity="1.000000" stroke="none" 
	d="
M411.531342,1.000000 
	C414.391327,11.481046 416.397888,22.068546 419.261719,32.418854 
	C423.861694,49.043938 429.028503,65.512199 433.510376,82.495201 
	C396.826874,82.964096 360.588806,83.004784 324.350739,82.995819 
	C307.897034,82.991745 291.443298,82.889297 274.989594,82.831467 
	C270.620758,65.596291 266.089020,48.400139 261.946960,31.110622 
	C259.631134,21.444069 257.961945,11.622609 256.000671,1.435476 
	C307.687561,1.000000 359.375122,1.000000 411.531342,1.000000 
z"/>
<path fill="#F8F9F9" opacity="1.000000" stroke="none" 
	d="
M987.811340,195.237579 
	C994.789368,190.474655 1002.053955,187.554642 1010.404053,187.871231 
	C1017.189880,188.128525 1022.974976,190.635193 1028.632324,196.037476 
	C1028.632324,184.928055 1028.632324,174.756546 1028.632324,164.217545 
	C1035.289185,164.217545 1041.333252,164.217545 1048.032227,164.217545 
	C1048.032227,186.238312 1048.032227,208.158356 1048.101318,230.543091 
	C1048.170410,240.100204 1048.170410,249.192612 1048.170410,258.561218 
	C1041.392822,258.561218 1035.335449,258.561218 1029.107666,258.561218 
	C1028.932861,256.358704 1028.779541,254.427460 1028.619263,252.408264 
	C1011.962158,264.192841 993.304810,261.767273 981.641846,246.422516 
	C970.227600,231.404953 973.036804,207.556458 987.811340,195.237579 
M1025.068237,210.473343 
	C1017.568359,203.754288 1006.995728,203.031357 1000.112305,208.766922 
	C992.971191,214.717194 991.315735,226.976929 996.573730,235.122726 
	C1000.873413,241.784042 1007.319824,243.678802 1014.722351,242.850586 
	C1021.682678,242.071838 1026.275269,237.973465 1028.368774,231.399277 
	C1030.645874,224.248352 1030.140747,217.317673 1025.068237,210.473343 
z"/>
<path fill="#F7F8F9" opacity="1.000000" stroke="none" 
	d="
M741.976196,208.541077 
	C742.063232,225.439041 742.063232,241.875427 742.063232,258.578064 
	C735.070984,258.578064 728.826416,258.578064 722.411621,258.578064 
	C722.173279,256.671204 721.958435,254.952042 721.725952,253.092209 
	C718.156433,255.138351 715.106750,257.502441 711.653870,258.754730 
	C699.458740,263.177521 689.271301,259.150360 679.633423,251.253998 
	C666.543579,240.529419 664.930420,217.230637 673.170715,204.445435 
	C683.037048,189.137314 700.294495,183.610199 716.694458,191.369812 
	C718.330933,192.144119 719.544678,193.811920 721.563843,195.606522 
	C721.929749,193.156631 722.182251,191.466171 722.522156,189.190826 
	C723.965332,189.116455 725.558350,189.034378 727.572632,188.889740 
	C732.401062,188.827209 736.808289,188.827209 741.889221,188.827209 
	C741.889221,195.670090 741.889221,201.874786 741.976196,208.541077 
M699.720520,242.154587 
	C701.512878,242.463089 703.298035,242.984406 705.098694,243.044983 
	C715.495483,243.394791 722.730103,236.253540 723.091248,225.407150 
	C723.502075,213.071014 717.306519,205.439728 706.472717,204.937424 
	C697.463440,204.519745 689.814941,209.980865 687.860107,218.227112 
	C685.277649,229.121002 689.295654,237.731995 699.720520,242.154587 
z"/>
<path fill="#F7F8F9" opacity="1.000000" stroke="none" 
	d="
M896.904785,238.003143 
	C887.827576,210.729599 906.178894,185.881531 934.107971,188.168488 
	C951.529358,189.595016 962.812195,200.647263 964.914795,218.166855 
	C965.384583,222.081451 964.983765,226.100555 964.983765,230.733566 
	C947.940002,230.733566 931.261475,230.733566 914.416809,230.733566 
	C916.615479,238.929474 922.748901,243.849945 931.607910,243.768234 
	C936.469360,243.723434 941.468018,242.490738 946.113342,240.927399 
	C949.042358,239.941620 950.902466,239.743469 953.045349,242.137741 
	C955.351746,244.714645 958.029419,246.959198 960.547241,249.350830 
	C942.037964,268.069702 908.363037,262.115753 896.904785,238.003143 
M923.650757,205.873657 
	C919.358032,208.276367 915.803162,211.296127 914.481445,216.727356 
	C925.481201,216.727356 936.159180,216.727356 946.875793,216.727356 
	C945.400635,207.031296 935.195251,202.080627 923.650757,205.873657 
z"/>
<path fill="#F5F7F8" opacity="1.000000" stroke="none" 
	d="
M864.153564,253.773483 
	C864.133240,241.807251 864.172546,230.317078 864.067078,218.828262 
	C864.018555,213.535599 863.447266,208.094086 857.672180,205.872543 
	C851.568481,203.524628 845.872314,205.014252 841.093445,209.532440 
	C836.823181,213.569824 834.234924,218.173065 834.430542,224.453690 
	C834.781616,235.726074 834.529541,247.017227 834.529541,258.568176 
	C827.851562,258.568176 821.789124,258.568176 815.439514,258.568176 
	C815.439514,235.425232 815.439514,212.537460 815.439514,189.318054 
	C821.707581,189.318054 827.780884,189.318054 834.302429,189.318054 
	C834.453613,192.690933 834.604370,196.053864 834.803650,200.500671 
	C841.208008,192.365036 848.183777,187.691971 857.858521,187.963943 
	C870.930359,188.331436 881.707214,197.012115 882.674255,210.735870 
	C883.780945,226.442490 882.930725,242.286987 882.930725,258.460785 
	C877.026001,258.460785 870.976685,258.460785 864.485352,258.460785 
	C864.379333,257.113281 864.266724,255.681702 864.153564,253.773483 
z"/>
<path fill="#F9F9F9" opacity="1.000000" stroke="none" 
	d="
M775.099731,248.541687 
	C775.169189,252.113205 775.169189,255.220230 775.169189,258.491425 
	C773.688293,258.657867 772.893066,258.821014 772.097107,258.824646 
	C766.968628,258.848083 761.840027,258.836670 755.768921,258.836670 
	C755.768921,246.657639 755.768921,234.794693 755.688354,222.469711 
	C755.607788,211.225937 755.607788,200.444214 755.607788,189.334061 
	C762.288940,189.334061 768.342651,189.334061 774.777527,189.334061 
	C774.777527,194.015228 774.777527,198.615616 774.777527,203.216019 
	C781.395264,192.174835 790.477600,186.615402 803.804565,188.313171 
	C803.804565,194.273453 803.804565,200.011978 803.804565,206.125519 
	C795.641724,206.144241 787.860840,207.536575 781.781738,213.949326 
	C777.425232,218.545029 775.175598,223.889145 775.033875,230.107376 
	C774.897400,236.094238 775.020874,242.087021 775.099731,248.541687 
z"/>
<path fill="#ACD5EF" opacity="1.000000" stroke="none" 
	d="
M274.557434,82.885529 
	C291.443298,82.889297 307.897034,82.991745 324.350739,82.995819 
	C360.588806,83.004784 396.826874,82.964096 433.530426,82.887573 
	C439.817841,82.887810 445.646759,83.156982 451.460480,82.964912 
	C482.222626,81.948593 484.556244,85.027397 483.999756,115.693779 
	C483.519806,142.145020 483.938507,168.612564 484.028076,195.537476 
	C484.030457,214.478241 483.933685,232.954391 483.906464,251.430649 
	C483.871124,275.404144 483.921631,299.377808 483.874237,323.351257 
	C483.851440,334.898102 477.794891,340.964050 466.343597,340.985840 
	C443.535767,341.029266 420.727814,341.025513 397.454285,341.104919 
	C357.173401,341.113617 317.358154,341.058594 277.542908,341.003754 
	C275.710297,341.001221 273.876892,341.035217 272.045227,340.992737 
	C262.422882,340.769623 256.043671,334.562225 256.035889,324.900574 
	C255.975143,249.597244 255.966003,174.293823 256.031342,98.990501 
	C256.040283,88.685623 262.472595,83.196022 274.557434,82.885529 
M337.638855,311.622955 
	C346.802246,311.741974 355.977448,312.215912 365.126678,311.910553 
	C388.422363,311.133087 411.705933,309.994049 434.995728,309.033844 
	C438.958710,308.870453 441.017334,307.125641 441.290070,302.971771 
	C442.369751,286.526672 443.617004,270.092621 444.757019,253.651352 
	C444.809998,252.887466 444.428375,252.093430 444.213348,251.157654 
	C443.069000,251.157654 442.074799,251.024628 441.126495,251.177032 
	C415.305115,255.326706 394.741364,267.953125 379.877960,289.539551 
	C377.567474,292.895142 375.025330,294.855377 370.836578,294.347137 
	C364.286865,293.552399 361.746216,289.328094 362.890747,280.928192 
	C368.271729,241.435944 371.917725,201.806320 371.166748,161.906769 
	C370.881866,146.769867 369.589142,131.651749 368.742310,116.525826 
	C368.593506,113.868340 368.183777,111.746574 364.533447,111.811050 
	C344.382935,112.167023 324.227509,112.568336 304.077393,112.429718 
	C298.112671,112.388687 297.307739,115.157166 297.196625,119.931442 
	C296.680969,142.085815 295.548096,164.234222 295.456207,186.388168 
	C295.295898,225.028534 295.768188,263.671295 295.886078,302.313324 
	C295.899872,306.837921 297.756195,309.090149 302.291351,309.366180 
	C313.756561,310.064026 325.215637,310.863312 337.638855,311.622955 
z"/>
<path fill="#F7F8F9" opacity="1.000000" stroke="none" 
	d="
M611.502258,257.756531 
	C598.941528,252.150192 590.396606,243.619461 588.386597,229.833679 
	C588.007019,227.230804 588.130981,224.554535 587.962524,221.457092 
	C590.213257,204.207932 599.475281,193.386124 615.878723,189.040161 
	C632.761780,184.567139 653.950012,193.660156 657.888794,215.044556 
	C658.796814,219.974396 658.454163,225.134583 658.711060,230.710114 
	C641.251770,230.710114 624.829529,230.710114 608.353149,230.710114 
	C609.327087,238.297791 616.351318,243.929474 625.522461,243.788422 
	C630.386902,243.713593 635.396484,242.471848 640.015869,240.838547 
	C643.037842,239.770065 644.859924,239.888733 646.886292,242.232437 
	C649.056458,244.742462 651.470581,247.041534 654.091553,249.757339 
	C641.700684,261.290100 627.312805,262.105835 611.502258,257.756531 
M616.842773,206.125275 
	C612.482361,208.437943 609.326416,211.673553 608.322693,216.703522 
	C619.335938,216.703522 630.015991,216.703522 640.773560,216.703522 
	C637.801758,206.197159 628.336121,201.866974 616.842773,206.125275 
z"/>
<path fill="#F9F9FA" opacity="1.000000" stroke="none" 
	d="
M523.467041,258.917725 
	C522.802368,258.474213 522.603638,257.977234 522.281982,257.238281 
	C522.269836,249.352264 522.460205,241.708374 522.476013,234.064133 
	C522.519348,213.095627 522.489441,192.126953 522.488464,171.158356 
	C522.488342,169.196609 522.488403,167.234863 522.488403,165.054535 
	C529.187561,165.054535 535.284363,165.054535 541.975220,165.054535 
	C541.975220,190.259003 541.975220,215.278763 541.975220,240.698517 
	C554.484802,240.698517 566.411926,240.698517 578.754395,240.698517 
	C578.754395,246.792343 578.754395,252.489853 578.754395,258.864197 
	C560.435120,258.864197 542.184082,258.864197 523.467041,258.917725 
z"/>
<path fill="#5181AC" opacity="1.000000" stroke="none" 
	d="
M1025.304932,210.756622 
	C1030.140747,217.317673 1030.645874,224.248352 1028.368774,231.399277 
	C1026.275269,237.973465 1021.682678,242.071838 1014.722351,242.850586 
	C1007.319824,243.678802 1000.873413,241.784042 996.573730,235.122726 
	C991.315735,226.976929 992.971191,214.717194 1000.112305,208.766922 
	C1006.995728,203.031357 1017.568359,203.754288 1025.304932,210.756622 
z"/>
<path fill="#4B7DA9" opacity="1.000000" stroke="none" 
	d="
M699.328613,242.060089 
	C689.295654,237.731995 685.277649,229.121002 687.860107,218.227112 
	C689.814941,209.980865 697.463440,204.519745 706.472717,204.937424 
	C717.306519,205.439728 723.502075,213.071014 723.091248,225.407150 
	C722.730103,236.253540 715.495483,243.394791 705.098694,243.044983 
	C703.298035,242.984406 701.512878,242.463089 699.328613,242.060089 
z"/>
<path fill="#5181AC" opacity="1.000000" stroke="none" 
	d="
M924.008118,205.724167 
	C935.195251,202.080627 945.400635,207.031296 946.875793,216.727356 
	C936.159180,216.727356 925.481201,216.727356 914.481445,216.727356 
	C915.803162,211.296127 919.358032,208.276367 924.008118,205.724167 
z"/>
<path fill="#2E689B" opacity="1.000000" stroke="none" 
	d="
M337.158020,311.622437 
	C325.215637,310.863312 313.756561,310.064026 302.291351,309.366180 
	C297.756195,309.090149 295.899872,306.837921 295.886078,302.313324 
	C295.768188,263.671295 295.295898,225.028534 295.456207,186.388168 
	C295.548096,164.234222 296.680969,142.085815 297.196625,119.931442 
	C297.307739,115.157166 298.112671,112.388687 304.077393,112.429718 
	C324.227509,112.568336 344.382935,112.167023 364.533447,111.811050 
	C368.183777,111.746574 368.593506,113.868340 368.742310,116.525826 
	C369.589142,131.651749 370.881866,146.769867 371.166748,161.906769 
	C371.917725,201.806320 368.271729,241.435944 362.890747,280.928192 
	C361.746216,289.328094 364.286865,293.552399 370.836578,294.347137 
	C375.025330,294.855377 377.567474,292.895142 379.877960,289.539551 
	C394.741364,267.953125 415.305115,255.326706 441.126495,251.177032 
	C442.074799,251.024628 443.069000,251.157654 444.213348,251.157654 
	C444.428375,252.093430 444.809998,252.887466 444.757019,253.651352 
	C443.617004,270.092621 442.369751,286.526672 441.290070,302.971771 
	C441.017334,307.125641 438.958710,308.870453 434.995728,309.033844 
	C411.705933,309.994049 388.422363,311.133087 365.126678,311.910553 
	C355.977448,312.215912 346.802246,311.741974 337.158020,311.622437 
z"/>
<path fill="#4A7CA9" opacity="1.000000" stroke="none" 
	d="
M617.192078,205.969574 
	C628.336121,201.866974 637.801758,206.197159 640.773560,216.703522 
	C630.015991,216.703522 619.335938,216.703522 608.322693,216.703522 
	C609.326416,211.673553 612.482361,208.437943 617.192078,205.969574 
z"/>
</svg>